<svg width="134" height="36" viewBox="0 0 134 36" fill="none" xmlns="http://www.w3.org/2000/svg">
<path d="M33 13V17H19.83L23.41 13.41L22 12L16 18L22 24L23.41 22.59L19.83 19H35V13H33Z" fill="#6D2080"/>
<path d="M68.528 11.4L62.948 24H61.634L56.054 11.4H57.494L62.318 22.344L67.178 11.4H68.528ZM73.236 24.09C72.324 24.09 71.502 23.886 70.77 23.478C70.038 23.058 69.462 22.482 69.042 21.75C68.622 21.018 68.412 20.19 68.412 19.266C68.412 18.342 68.622 17.514 69.042 16.782C69.462 16.05 70.038 15.48 70.77 15.072C71.502 14.664 72.324 14.46 73.236 14.46C74.148 14.46 74.97 14.664 75.702 15.072C76.434 15.48 77.004 16.05 77.412 16.782C77.832 17.514 78.042 18.342 78.042 19.266C78.042 20.19 77.832 21.018 77.412 21.75C77.004 22.482 76.434 23.058 75.702 23.478C74.97 23.886 74.148 24.09 73.236 24.09ZM73.236 22.956C73.908 22.956 74.508 22.806 75.036 22.506C75.576 22.194 75.996 21.756 76.296 21.192C76.596 20.628 76.746 19.986 76.746 19.266C76.746 18.546 76.596 17.904 76.296 17.34C75.996 16.776 75.576 16.344 75.036 16.044C74.508 15.732 73.908 15.576 73.236 15.576C72.564 15.576 71.958 15.732 71.418 16.044C70.89 16.344 70.47 16.776 70.158 17.34C69.858 17.904 69.708 18.546 69.708 19.266C69.708 19.986 69.858 20.628 70.158 21.192C70.47 21.756 70.89 22.194 71.418 22.506C71.958 22.806 72.564 22.956 73.236 22.956ZM80.6511 10.644H81.9291V24H80.6511V10.644ZM90.5063 23.424C90.2663 23.64 89.9663 23.808 89.6063 23.928C89.2583 24.036 88.8923 24.09 88.5083 24.09C87.6203 24.09 86.9363 23.85 86.4563 23.37C85.9763 22.89 85.7363 22.212 85.7363 21.336V15.612H84.0443V14.532H85.7363V12.462H87.0143V14.532H89.8943V15.612H87.0143V21.264C87.0143 21.828 87.1523 22.26 87.4283 22.56C87.7163 22.848 88.1243 22.992 88.6523 22.992C88.9163 22.992 89.1683 22.95 89.4083 22.866C89.6603 22.782 89.8763 22.662 90.0563 22.506L90.5063 23.424ZM96.1448 14.46C97.3808 14.46 98.3288 14.772 98.9888 15.396C99.6488 16.008 99.9788 16.92 99.9788 18.132V24H98.7548V22.524C98.4668 23.016 98.0408 23.4 97.4768 23.676C96.9248 23.952 96.2648 24.09 95.4968 24.09C94.4408 24.09 93.6008 23.838 92.9768 23.334C92.3528 22.83 92.0408 22.164 92.0408 21.336C92.0408 20.532 92.3288 19.884 92.9048 19.392C93.4928 18.9 94.4228 18.654 95.6948 18.654H98.7008V18.078C98.7008 17.262 98.4728 16.644 98.0168 16.224C97.5608 15.792 96.8948 15.576 96.0188 15.576C95.4188 15.576 94.8428 15.678 94.2908 15.882C93.7388 16.074 93.2648 16.344 92.8688 16.692L92.2928 15.738C92.7728 15.33 93.3488 15.018 94.0208 14.802C94.6928 14.574 95.4008 14.46 96.1448 14.46ZM95.6948 23.082C96.4148 23.082 97.0328 22.92 97.5488 22.596C98.0648 22.26 98.4488 21.78 98.7008 21.156V19.608H95.7308C94.1108 19.608 93.3008 20.172 93.3008 21.3C93.3008 21.852 93.5108 22.29 93.9308 22.614C94.3508 22.926 94.9388 23.082 95.6948 23.082ZM104.674 16.386C104.974 15.75 105.418 15.27 106.006 14.946C106.606 14.622 107.344 14.46 108.22 14.46V15.702L107.914 15.684C106.918 15.684 106.138 15.99 105.574 16.602C105.01 17.214 104.728 18.072 104.728 19.176V24H103.45V14.532H104.674V16.386Z" fill="#6D2080"/>
<rect x="0.5" y="0.5" width="133" height="35" stroke="#6D2080"/>
</svg>
